<mxfile host="app.diagrams.net" modified="2023-09-20T17:13:47.736Z" agent="Mozilla/5.0 (Windows NT 10.0; Win64; x64) AppleWebKit/537.36 (KHTML, like Gecko) Chrome/116.0.0.0 Safari/537.36 Edg/116.0.1938.76" etag="BIEOPnZCpgL-hiPQTt5u" version="21.7.5" type="github">
  <diagram id="R2lEEEUBdFMjLlhIrx00" name="Page-1">
    <mxGraphModel dx="652" dy="359" grid="1" gridSize="10" guides="1" tooltips="1" connect="1" arrows="1" fold="1" page="1" pageScale="1" pageWidth="850" pageHeight="1100" math="0" shadow="0" extFonts="Permanent Marker^https://fonts.googleapis.com/css?family=Permanent+Marker">
      <root>
        <mxCell id="0" />
        <mxCell id="1" parent="0" />
        <mxCell id="xZp1aWSGMHLG7B310qVQ-1" value="Students" style="swimlane;childLayout=stackLayout;horizontal=1;startSize=50;horizontalStack=0;rounded=1;fontSize=14;fontStyle=0;strokeWidth=3;resizeParent=0;resizeLast=1;shadow=0;dashed=0;align=center;arcSize=4;whiteSpace=wrap;html=1;fillColor=#dae8fc;strokeColor=#6c8ebf;perimeterSpacing=2;" vertex="1" parent="1">
          <mxGeometry x="60" y="40" width="160" height="120" as="geometry" />
        </mxCell>
        <mxCell id="xZp1aWSGMHLG7B310qVQ-2" value="name&lt;br&gt;email&lt;br&gt;dateRegistered" style="align=left;strokeColor=none;fillColor=none;spacingLeft=4;fontSize=12;verticalAlign=top;resizable=0;rotatable=0;part=1;html=1;" vertex="1" parent="xZp1aWSGMHLG7B310qVQ-1">
          <mxGeometry y="50" width="160" height="70" as="geometry" />
        </mxCell>
        <mxCell id="xZp1aWSGMHLG7B310qVQ-4" value="Courses" style="swimlane;childLayout=stackLayout;horizontal=1;startSize=50;horizontalStack=0;rounded=1;fontSize=14;fontStyle=0;strokeWidth=3;resizeParent=0;resizeLast=1;shadow=0;dashed=0;align=center;arcSize=4;whiteSpace=wrap;html=1;fillColor=#dae8fc;strokeColor=#6c8ebf;" vertex="1" parent="1">
          <mxGeometry x="500" y="40" width="160" height="120" as="geometry" />
        </mxCell>
        <mxCell id="xZp1aWSGMHLG7B310qVQ-5" value="title&lt;br&gt;price&lt;br&gt;instructor&lt;br&gt;tags" style="align=left;strokeColor=none;fillColor=none;spacingLeft=4;fontSize=12;verticalAlign=top;resizable=0;rotatable=0;part=1;html=1;" vertex="1" parent="xZp1aWSGMHLG7B310qVQ-4">
          <mxGeometry y="50" width="160" height="70" as="geometry" />
        </mxCell>
        <mxCell id="xZp1aWSGMHLG7B310qVQ-6" value="" style="edgeStyle=entityRelationEdgeStyle;fontSize=12;html=1;endArrow=ERmany;startArrow=ERmany;rounded=0;exitX=1;exitY=0.25;exitDx=0;exitDy=0;entryX=0;entryY=0;entryDx=0;entryDy=0;" edge="1" parent="1" source="xZp1aWSGMHLG7B310qVQ-2" target="xZp1aWSGMHLG7B310qVQ-5">
          <mxGeometry width="100" height="100" relative="1" as="geometry">
            <mxPoint x="290" y="160" as="sourcePoint" />
            <mxPoint x="390" y="60" as="targetPoint" />
            <Array as="points">
              <mxPoint x="290" y="-10" />
            </Array>
          </mxGeometry>
        </mxCell>
        <mxCell id="xZp1aWSGMHLG7B310qVQ-8" value="ENROLLS" style="edgeLabel;html=1;align=center;verticalAlign=middle;resizable=0;points=[];" vertex="1" connectable="0" parent="xZp1aWSGMHLG7B310qVQ-6">
          <mxGeometry x="-0.0084" y="-2" relative="1" as="geometry">
            <mxPoint as="offset" />
          </mxGeometry>
        </mxCell>
      </root>
    </mxGraphModel>
  </diagram>
</mxfile>
